<svg width="1560" height="257" viewBox="0 0 1560 257" fill="none" xmlns="http://www.w3.org/2000/svg">
<path d="M64.6173 118.031C43.7561 182.777 25.9125 237.376 24.8629 239.406C21.2548 246.607 16.4003 249.291 5.44491 250.208C1.50883 250.535 0 250.862 0 251.517C0 252.303 4.59209 252.434 27.2245 252.434C49.7258 252.434 54.4491 252.303 54.4491 251.517C54.4491 250.862 52.4155 250.601 45.3961 250.339C31.095 249.815 27.815 247.589 29.455 239.471C29.8486 237.442 34.8343 221.533 40.476 204.185L50.7754 172.565H89.8738H128.972L139.928 206.411C150.424 239.013 152.851 247.131 152.851 249.422C152.851 250.339 151.473 250.47 141.699 250.47C132.252 250.47 130.547 250.601 130.547 251.452C130.547 252.303 135.336 252.434 169.907 252.434C204.479 252.434 209.268 252.303 209.268 251.452C209.268 250.601 207.759 250.47 199.428 250.47C189.85 250.47 189.522 250.404 188.932 248.964C188.604 248.178 173.187 200.977 154.819 144.087C136.385 87.1962 118.345 31.6152 114.737 20.4859L108.177 0.387709H105.356H102.535L64.6173 118.031ZM109.423 109.193C119.657 142.057 127.988 169.16 127.923 169.422C127.923 169.749 110.801 169.946 89.8082 169.946C59.566 169.946 51.7594 169.749 52.0218 169.095C52.153 168.702 60.8124 141.599 71.243 108.931C81.6736 76.2633 90.333 49.4876 90.5298 49.4876C90.7266 49.4876 99.2548 76.3943 109.423 109.193Z" fill="white"/>
<path d="M296.846 1.04076C251.778 5.03422 225.013 32.1373 215.501 83.3321C212.614 98.9131 211.696 110.37 211.63 131.646C211.63 156.458 213.008 170.468 217.141 187.947C226.915 228.864 249.942 251.515 286.219 255.771C294.944 256.753 307.736 256.164 314.559 254.461C325.383 251.646 334.502 245.493 338.635 238.226C339.684 236.327 340.734 234.756 340.799 234.756C340.931 234.756 346.572 238.749 353.264 243.594C361.07 249.29 365.99 252.432 367.04 252.432H368.68V195.803V139.175H376.552C383.965 139.175 384.424 139.11 384.424 137.866C384.424 136.556 383.965 136.556 348.344 136.556C312.722 136.556 312.263 136.556 312.263 137.866C312.263 139.11 312.722 139.175 325.711 139.175H339.159V185.329V231.483L337.716 234.625C335.814 238.684 329.319 245.1 324.399 247.653C317.511 251.254 311.082 252.694 301.767 252.694C284.776 252.694 273.427 246.933 264.767 233.905C252.369 215.247 247.252 185.656 247.252 132.694C247.252 100.222 248.695 81.499 252.566 61.8591C258.339 32.9884 268.441 16.2944 285.038 8.24207C291.664 5.03422 298.355 3.65942 307.802 3.65942C322.562 3.65942 330.5 6.27808 338.241 13.6103C347.36 22.3174 352.148 35.2797 354.313 57.4728C355.1 65.5907 355.166 65.8526 356.675 65.8526H358.184V34.6905V3.52849L355.1 3.92129C344.539 5.16515 342.177 5.09968 329.975 3.07022C316.33 0.778896 306.49 0.189698 296.846 1.04076Z" fill="white"/>
<path d="M685.73 1.04135C643.876 5.0348 620.391 34.2983 613.7 90.7304C611.207 111.418 611.207 145.657 613.7 165.951C618.423 204.708 630.625 230.305 650.961 244.053C665.918 254.2 688.354 258.521 709.478 255.379C735.259 251.516 752.447 238.946 764.189 215.313C774.817 194.036 779.54 166.999 779.605 127.392C779.605 89.1592 775.341 64.3474 765.239 43.0708C754.021 19.6338 738.014 6.99879 713.742 2.35068C706.001 0.844947 693.733 0.321216 685.73 1.04135ZM706.854 4.642C715.316 6.86786 721.155 10.6649 726.009 17.0806C734.931 28.8646 739.589 45.8204 742.672 77.9644C743.722 89.0283 744.181 149.847 743.328 165.428C740.966 207.523 734.537 231.614 722.532 243.595C716.431 249.683 708.822 252.825 698.325 253.48C669.592 255.313 655.291 236.459 649.846 189.585C646.304 159.339 645.976 103.3 649.124 71.6797C653.389 29.6502 663.426 10.0103 683.565 4.70747C688.551 3.39814 701.868 3.39814 706.854 4.642Z" fill="white"/>
<path d="M1052.57 1.03991C1012.69 4.9679 989.727 30.238 981.461 79.4033C978.771 95.1152 978.443 100.811 978.443 128.372C978.443 150.5 978.64 156.916 979.69 165.033C984.347 202.938 995.631 227.881 1014.39 242.022C1027.97 252.3 1045.36 257.079 1066.02 256.163C1111.35 254.133 1136.15 225.59 1143.69 166.67C1147.17 139.894 1146.45 103.037 1142.12 78.1594C1134.97 37.5047 1116.99 12.7584 1088.52 4.3787C1078.09 1.30178 1063.4 -0.0730153 1052.57 1.03991ZM1072.06 4.3787C1073.96 4.7715 1077.7 6.1463 1080.32 7.39016C1096.26 14.9188 1104.59 34.7551 1108.33 74.035C1110.7 98.7159 1110.83 152.006 1108.66 177.799C1105.51 215.377 1098.23 236.916 1085.57 246.474C1079.67 250.925 1073.7 252.889 1064.38 253.479C1038.07 255.115 1023.71 239.011 1017.54 200.713C1012.16 167.652 1011.51 100.942 1016.23 63.9532C1019.51 37.963 1024.82 23.233 1034.2 13.7404C1039.06 8.89589 1043.26 6.40816 1049.62 4.70604C1053.95 3.52764 1067.14 3.33124 1072.06 4.3787Z" fill="white"/>
<path d="M1249.77 1.10608C1205.75 5.23047 1182.2 37.44 1176.89 100.55C1175.77 113.708 1175.9 145.918 1177.15 158.815C1180.76 195.738 1189.75 220.026 1205.75 236.131C1216.77 247.26 1230.88 253.676 1248.59 255.771C1256.53 256.687 1270.76 256.163 1277.91 254.723C1310.91 248.111 1330.59 224.739 1339.25 182.055C1345.29 152.268 1345.55 107.162 1339.91 76.3925C1331.97 33.1846 1311.5 8.76566 1277.91 2.34995C1270.17 0.844219 1257.91 0.320487 1249.77 1.10608ZM1271.03 4.64127C1287.62 8.96206 1296.74 21.2698 1302.45 46.9326C1306.52 65.3941 1307.5 78.4874 1307.89 118.684C1308.42 169.224 1306.65 193.774 1300.81 215.64C1295.23 236.851 1286.11 248.307 1271.68 252.235C1266.24 253.676 1257.25 253.938 1251.08 252.825C1231.8 249.355 1221.1 233.774 1215.59 201.106C1210.34 169.748 1209.56 104.15 1214.02 65.8524C1218.28 28.4711 1228.65 9.74766 1247.74 4.70674C1252.72 3.39741 1266.04 3.39741 1271.03 4.64127Z" fill="white"/>
<path d="M406.073 5.62555C406.073 6.86942 406.532 6.93488 419.521 6.93488H432.97L432.838 128.506L432.642 250.143L419.39 250.339C408.172 250.47 406.073 250.666 406.073 251.452C406.073 252.303 410.337 252.434 438.743 252.434C456.783 252.434 476.398 252.63 482.367 252.892L493.323 253.285V251.452V249.685L480.071 249.881L466.754 250.143V128.702V7.26221L482.827 7.39315C496.734 7.45861 499.621 7.65501 504.147 8.83341C521.859 13.4815 531.372 25.2655 535.111 47.5241C536.554 56.4275 536.554 76.5257 534.98 85.1673C531.372 105.724 523.368 118.424 509.986 124.775C504.409 127.459 497.456 128.702 488.337 128.702C482.105 128.702 480.859 128.899 480.859 129.684C480.859 130.405 481.646 130.666 484.007 130.666C490.568 130.666 497.653 133.482 502.966 138.064C506.115 140.814 511.035 148.473 513.528 154.365C514.643 156.984 519.826 172.369 525.14 188.604C539.244 231.747 543.442 239.537 556.956 247.066C564.566 251.321 568.436 251.976 588.642 252.238C604.583 252.5 606.813 252.434 606.813 251.583C606.813 250.863 605.829 250.47 603.074 250.143C590.872 248.833 584.574 244.644 578.145 233.776C574.406 227.491 572.372 222.254 560.892 189.914C550.134 159.472 548.1 154.562 543.508 147.688C537.801 139.046 527.698 131.714 518.317 129.292C514.84 128.441 513.856 127.393 516.546 127.393C517.399 127.393 520.744 126.608 523.893 125.691C547.838 118.817 562.991 104.414 568.896 83.2033C570.864 75.9365 571.06 56.8203 569.158 49.8154C562.401 24.4144 540.293 8.70248 506.312 5.03635C502.441 4.57809 481.449 4.31622 452.978 4.31622C406.532 4.31622 406.073 4.31622 406.073 5.62555Z" fill="white"/>
<path d="M802.304 5.62414C802.304 6.868 802.763 6.93347 815.752 6.93347H829.2L829.069 128.505L828.872 250.141L815.621 250.338C805.059 250.469 802.304 250.665 802.304 251.385C802.304 252.498 860.295 253.153 916.056 252.629L955.155 252.236V224.151V196.132H953.58C952.072 196.132 951.94 196.459 951.547 200.583C950.3 213.873 948.529 221.271 944.659 229.192C939.214 240.387 931.013 247.261 920.452 249.552C916.909 250.272 911.202 250.403 889.422 250.01L862.657 249.618V128.243V6.93347H876.105C889.094 6.93347 889.553 6.868 889.553 5.62414C889.553 4.31481 889.094 4.31481 845.929 4.31481C802.763 4.31481 802.304 4.31481 802.304 5.62414Z" fill="white"/>
<path d="M1366.48 5.62597C1366.48 6.86983 1366.94 6.9353 1379.92 6.9353H1393.37L1393.24 120.978L1393.04 235.086L1391.6 238.752C1388.71 245.822 1383.73 248.637 1371.99 249.947C1367.13 250.471 1365.16 250.929 1365.16 251.583C1365.16 252.304 1370.81 252.435 1396.32 252.435C1422.37 252.435 1427.49 252.304 1427.49 251.518C1427.49 250.863 1425.98 250.536 1421.78 250.143C1407.21 249.03 1400.98 245.888 1397.77 238.097L1396.32 234.431L1396.13 124.251C1396.06 63.6947 1396.19 14.1366 1396.52 14.1366C1396.85 14.1366 1406.03 30.6996 1416.99 50.9288C1436.47 87.0662 1466.39 142.385 1505.94 215.446L1525.82 252.107L1528.77 252.304L1531.79 252.5L1531.92 136.755C1532.12 42.2872 1532.32 20.5523 1533.04 18.3919C1533.5 16.8862 1535.2 14.4639 1536.91 12.8273C1540.78 9.16115 1545.57 7.52449 1553.96 7.06623C1559.28 6.80436 1560 6.60796 1560 5.5605C1560 4.3821 1558.75 4.31664 1527.86 4.31664C1496.17 4.31664 1495.71 4.31664 1495.71 5.62597C1495.71 6.80436 1496.17 6.9353 1500.83 6.9353C1507.32 7.00076 1514.87 8.37556 1518.87 10.2086C1523.26 12.2381 1526.94 16.6898 1527.86 20.8797C1528.38 23.3019 1528.51 48.1792 1528.38 106.444L1528.18 188.605L1506.6 147.688C1494.79 125.168 1472.95 83.7275 1458.06 55.5769L1431.09 4.31664H1398.82C1366.94 4.31664 1366.48 4.31664 1366.48 5.62597Z" fill="white"/>
</svg>
